<?xml version="1.0" standalone="no"?>
<!DOCTYPE svg PUBLIC "-//W3C//DTD SVG 20010904//EN"
 "http://www.w3.org/TR/2001/REC-SVG-20010904/DTD/svg10.dtd">
<svg version="1.0" xmlns="http://www.w3.org/2000/svg"
 width="744.000000pt" height="744.000000pt" viewBox="0 0 744.000000 744.000000"
 preserveAspectRatio="xMidYMid meet">
<metadata>
Created by potrace 1.11, written by Peter Selinger 2001-2013
</metadata>
<g transform="translate(0.000000,744.000000) scale(0.100000,-0.100000)"
fill="#000000" stroke="none">
<path d="M5176 6555 c-87 -42 -147 -119 -160 -205 -5 -36 14 -155 34 -205 44
-110 66 -185 55 -185 -7 0 -18 -7 -25 -15 -6 -8 -15 -13 -19 -12 -7 2 -160
-91 -179 -110 -8 -7 -30 -26 -50 -41 -50 -37 -160 -147 -207 -207 -22 -27 -46
-56 -52 -63 -7 -7 -13 -17 -13 -22 0 -5 -7 -15 -15 -24 -15 -15 -90 -156 -112
-211 -15 -37 -40 -146 -47 -205 -7 -56 -8 -197 -1 -230 2 -14 7 -41 9 -60 8
-57 34 -121 72 -177 29 -42 50 -59 105 -86 l68 -34 -32 -44 c-17 -24 -34 -46
-37 -49 -3 -3 -30 -36 -60 -75 -161 -205 -411 -489 -719 -814 -80 -85 -193
-202 -249 -260 -565 -578 -673 -689 -689 -707 -10 -12 -68 -75 -130 -140 -61
-66 -130 -139 -153 -164 -23 -25 -97 -103 -165 -175 -67 -71 -145 -155 -173
-185 l-50 -54 -6 34 c-6 33 -12 92 -21 200 -2 25 -7 77 -10 115 -10 111 -14
172 -19 287 -3 60 -7 111 -9 115 -7 11 -1 954 6 1038 13 150 18 201 22 235 3
19 7 51 9 70 14 109 19 145 37 240 39 212 78 353 145 524 42 105 184 398 244
501 22 39 46 82 53 98 6 15 15 27 19 27 4 0 8 4 8 9 0 8 127 221 147 246 7 9
75 111 138 208 l18 29 -79 -6 c-43 -3 -90 -8 -104 -10 -14 -3 -68 -7 -120 -11
-52 -3 -113 -8 -135 -10 -22 -3 -78 -7 -124 -10 -47 -3 -98 -8 -115 -10 -17
-2 -60 -7 -96 -10 -36 -3 -76 -7 -90 -10 -14 -2 -50 -7 -80 -10 -61 -6 -87
-10 -205 -30 -44 -8 -93 -16 -110 -19 -211 -36 -526 -143 -700 -236 -44 -24
-90 -48 -102 -54 -13 -6 -23 -14 -23 -18 0 -5 -5 -8 -11 -8 -16 0 -163 -104
-254 -180 -77 -64 -256 -251 -310 -325 -17 -22 -33 -42 -36 -45 -13 -12 -102
-165 -130 -228 -90 -193 -132 -375 -133 -572 -1 -146 4 -188 29 -265 64 -195
164 -298 300 -309 31 -3 108 25 133 48 39 34 63 93 63 150 0 55 -32 161 -74
241 -108 206 -128 318 -90 495 8 36 15 70 17 77 1 7 5 16 9 19 4 4 7 14 7 23
0 35 105 228 156 288 11 12 35 41 54 64 177 213 530 431 912 565 53 18 108 35
122 38 14 3 29 7 33 9 8 5 133 32 188 41 111 17 189 26 275 30 56 3 79 -2 63
-13 -12 -9 -61 -73 -125 -166 -243 -352 -427 -763 -493 -1105 -13 -66 -35
-200 -40 -240 -3 -25 -8 -63 -11 -84 -12 -85 -17 -333 -10 -486 8 -163 16
-305 21 -365 3 -33 7 -96 10 -140 3 -44 7 -105 10 -135 3 -30 7 -86 10 -125 2
-38 7 -108 11 -155 4 -47 7 -111 8 -142 1 -32 3 -58 6 -58 3 0 5 -19 6 -43 0
-23 4 -82 8 -132 4 -49 9 -124 12 -165 3 -41 7 -95 10 -120 2 -25 7 -83 9
-130 3 -47 8 -105 10 -130 3 -25 7 -83 10 -130 3 -47 7 -105 9 -130 2 -25 7
-83 10 -130 4 -47 9 -112 12 -145 3 -33 6 -82 6 -108 l2 -49 46 50 c25 28 72
81 105 117 33 37 69 77 80 89 11 12 60 66 110 121 49 55 92 102 95 105 3 3 54
59 115 125 60 66 114 125 120 131 5 6 53 57 105 114 342 370 749 795 1154
1204 292 295 498 510 656 686 150 166 133 146 245 275 39 44 75 85 80 91 29
32 111 129 129 152 11 15 25 32 31 38 6 6 27 30 46 54 101 123 108 130 128
120 9 -5 36 -18 61 -28 75 -32 193 -83 225 -97 17 -8 100 -43 185 -79 l155
-65 -1 -43 c0 -42 -2 -60 -23 -188 -5 -36 -12 -83 -16 -105 -3 -22 -10 -67
-15 -100 -5 -33 -12 -80 -15 -105 -3 -25 -7 -52 -10 -60 -4 -14 -10 -55 -20
-125 -3 -16 -7 -41 -10 -55 -3 -14 -8 -45 -11 -70 -3 -25 -7 -52 -9 -60 -3 -8
-7 -33 -10 -55 -3 -22 -10 -62 -15 -90 -5 -27 -12 -66 -14 -85 -3 -19 -8 -46
-11 -60 -3 -14 -7 -39 -9 -57 -3 -18 -7 -40 -10 -50 -2 -10 -7 -34 -10 -53 -3
-19 -8 -47 -11 -62 -3 -16 -7 -38 -9 -50 -2 -13 -7 -41 -12 -63 -4 -22 -9 -49
-10 -60 -1 -11 -3 -20 -4 -20 -1 0 -3 -10 -6 -22 -10 -57 -56 -243 -70 -288
-57 -174 -169 -321 -289 -376 -78 -35 -215 -43 -310 -18 -91 24 -293 140 -369
211 -43 39 -178 71 -236 56 -77 -20 -133 -98 -132 -183 0 -61 2 -69 29 -120
57 -108 199 -196 390 -240 55 -13 265 -14 329 -2 49 9 155 37 204 54 25 8 50
16 55 17 6 1 40 17 77 34 37 18 69 32 71 30 1 -2 9 3 17 10 8 7 51 36 94 64
44 28 87 58 96 67 9 9 43 41 76 72 49 46 96 97 142 154 15 19 87 121 99 140
31 50 97 171 99 180 1 6 15 39 32 75 44 94 122 338 138 429 3 14 11 51 19 81
7 30 17 78 21 105 4 28 9 57 10 65 2 8 6 33 9 55 3 22 7 51 9 65 3 14 7 48 10
75 3 28 7 68 10 90 3 22 8 58 11 80 2 22 7 51 9 65 3 14 10 66 16 115 6 50 13
106 16 125 2 19 7 60 10 90 3 30 9 59 14 63 4 5 169 -59 366 -141 455 -190
460 -192 565 -193 163 -2 252 93 188 201 -27 46 -127 140 -148 140 -5 0 -11 3
-13 8 -6 14 -277 154 -433 224 -33 15 -90 40 -127 57 -37 17 -96 42 -130 57
-174 72 -215 95 -212 117 4 39 15 121 19 147 2 14 6 39 9 55 2 17 7 57 11 90
4 32 8 66 10 75 3 16 15 112 21 170 2 19 6 46 8 60 3 14 8 43 11 65 3 23 8 52
10 65 3 14 8 45 11 70 3 25 8 53 10 63 3 10 7 30 9 45 3 25 9 58 19 107 2 11
7 40 11 65 4 25 9 54 11 65 3 11 7 36 10 55 3 19 7 42 10 50 3 8 8 29 10 45 3
17 11 62 19 100 8 39 17 82 20 98 3 15 7 38 10 52 3 14 7 36 10 50 3 14 7 35
10 48 3 12 7 31 9 42 2 11 11 49 19 85 8 36 18 82 21 104 4 21 9 43 13 49 6 9
-59 6 -122 -7 -17 -3 -77 -12 -205 -31 -14 -2 -61 -9 -105 -15 -69 -10 -220
-36 -265 -45 -8 -2 -29 -7 -46 -10 l-30 -7 -18 84 c-22 103 -73 212 -124 265
-84 87 -218 116 -316 68z m660 -612 c-7 -44 -14 -93 -22 -158 -3 -33 -8 -69
-10 -80 -2 -11 -6 -45 -9 -75 -3 -30 -8 -66 -10 -80 -6 -33 -15 -103 -20 -143
-1 -18 -8 -70 -14 -117 -7 -47 -14 -103 -17 -125 -2 -22 -7 -51 -9 -65 -3 -14
-7 -51 -10 -83 -4 -32 -8 -66 -10 -75 -1 -9 -6 -46 -10 -82 -4 -36 -8 -72 -10
-80 -3 -18 -14 -101 -20 -150 -8 -70 -17 -135 -20 -138 -3 -3 -157 55 -223 84
-21 9 -46 20 -57 24 -40 16 -180 74 -183 76 -2 1 28 49 65 106 38 57 72 110
76 118 4 8 21 38 37 65 71 118 166 333 196 440 20 73 46 177 49 200 5 27 16
93 20 116 2 11 7 65 11 122 3 56 7 103 9 105 1 1 22 5 46 8 24 3 45 7 47 9 1
1 25 3 52 4 50 1 50 1 46 -26z m-677 -210 c2 -21 3 -54 4 -73 1 -47 -12 -200
-18 -209 -2 -4 -7 -23 -10 -42 -15 -87 -123 -382 -156 -424 -4 -5 -24 -41 -44
-80 -54 -103 -54 -103 -116 -74 -57 26 -114 92 -147 170 -15 35 -19 64 -17
130 3 92 10 122 49 199 65 130 200 283 322 365 32 22 61 42 64 46 8 10 44 28
56 29 6 0 12 -17 13 -37z"/>
</g>
</svg>
