<svg xmlns="http://www.w3.org/2000/svg" xmlns:xlink="http://www.w3.org/1999/xlink" width="92.529" height="71.115" viewBox="0 0 92.529 71.115">
  <defs>
    <linearGradient id="linear-gradient" x1="-0.394" y1="0.006" x2="0.51" y2="0.925" gradientUnits="objectBoundingBox">
      <stop offset="0" stop-color="#01579b"/>
      <stop offset="1" stop-color="#0277bd"/>
    </linearGradient>
  </defs>
  <g id="Logo" transform="translate(-968.194 383.847)">
    <path id="Path_1" data-name="Path 1" d="M39.436.038s-3.949,9.854-6.1,17.2L27.471,37.114q-2.79,9.547-7.781,13.976A16.191,16.191,0,0,1,8.725,55.557,10.637,10.637,0,0,1,2.4,53.84Q0,52.123,0,50.063a2.33,2.33,0,0,1,.709-1.679,2.2,2.2,0,0,1,1.614-.725A4.265,4.265,0,0,1,5.2,49.223a14.141,14.141,0,0,0,3.267,2.671,6.965,6.965,0,0,0,2.992.8,4.673,4.673,0,0,0,2.44-.611,8.555,8.555,0,0,0,2.952-3.113q1.26-2.12,5.2-14.112,3.306-10,6.416-20.771L31.883,2.48,29.994,2.4A17.394,17.394,0,0,0,19.642,5.323q-4.094,2.919-4.094,6.162a4.845,4.845,0,0,0,1.023,2.633c.63.916,18.735,11.066,24.609,15.771,4.129,3.308,2.025,4.647.983,4.85a4.846,4.846,0,0,1-1.752-.114,7.964,7.964,0,0,1-2.175-.943S13.245,18.38,12.655,17.593a5.718,5.718,0,0,1-.886-3.465A11.61,11.61,0,0,1,14.894,6.3a17.95,17.95,0,0,1,8.43-5.2A38.638,38.638,0,0,1,34.052,0C34.733,0,39.436.038,39.436.038Z" transform="translate(1008.936 -373.785) rotate(-9)" fill="#0091ea"/>
    <path id="Path_3" data-name="Path 3" d="M28.412,22.99,26.625-.755q-.545-7.26-.545-9.566a37.861,37.861,0,0,1,1.893-12.225,43.737,43.737,0,0,1,6.713-11.979,27.72,27.72,0,0,0-11.692,2.755q-5.956,2.755-8.726,6.345a11.8,11.8,0,0,0-2.77,7.231,7.483,7.483,0,0,0,1.01,3.542,8.493,8.493,0,0,1,1.3,3.591,2.473,2.473,0,0,1-.682,1.82,2.363,2.363,0,0,1-1.754.689,3.346,3.346,0,0,1-2.729-1.62,9.332,9.332,0,0,1-1.462-5.352A18.091,18.091,0,0,1,11.69-27.063a26.331,26.331,0,0,1,12.36-8.2Q29.1-36.98,38.766-37.618q2.6-.2,5.3-.491-6.637,9.721-8.653,16.226T33.4-4.233a126.4,126.4,0,0,0,.885,15.62L43.72,1.319l8.063-8.252Q63.973-19.453,68.2-26.67q3.2-5.45,3.2-9.917a15.211,15.211,0,0,0-1.129-5.4,8.587,8.587,0,0,1-.736-2.848,3.121,3.121,0,0,1,1.006-2.308,3.3,3.3,0,0,1,2.381-.982A3.716,3.716,0,0,1,76.06-46.21q1.277,1.915,1.277,5.99a23.945,23.945,0,0,1-1.671,8.42q-1.671,4.443-7.027,11.317A224.524,224.524,0,0,1,52.077-2.269Q40.343,9.6,28.412,22.99Z" transform="translate(961.016 -335.722)" fill="url(#linear-gradient)"/>
    <path id="Path_2" data-name="Path 2" d="M1304.139-445.517a34.286,34.286,0,0,1,6.695-2.207s.076,2.293.07,2.3a33.491,33.491,0,0,0-6.248,2.138C1304.648-443.292,1304.141-445.519,1304.139-445.517Z" transform="translate(-272.413 69.392)" fill="#0091ea"/>
  </g>
</svg>
